<mxfile host="Electron" modified="2024-04-22T12:31:24.765Z" agent="Mozilla/5.0 (Windows NT 10.0; Win64; x64) AppleWebKit/537.36 (KHTML, like Gecko) draw.io/24.1.0 Chrome/120.0.6099.109 Electron/28.1.0 Safari/537.36" etag="SumZaye9kHgtPGCfsEkB" version="24.1.0" type="device">
  <diagram name="Page-1" id="yCLrA_7-yJV7WQ1eYc_s">
    <mxGraphModel dx="861" dy="1616" grid="1" gridSize="10" guides="1" tooltips="1" connect="1" arrows="1" fold="1" page="1" pageScale="1" pageWidth="850" pageHeight="1100" math="0" shadow="0">
      <root>
        <mxCell id="0" />
        <mxCell id="1" parent="0" />
        <mxCell id="ScdA0ONn2j5fR9MgsaRm-25" value="Actors" style="swimlane;childLayout=stackLayout;horizontal=1;startSize=50;horizontalStack=0;rounded=1;fontSize=14;fontStyle=0;strokeWidth=2;resizeParent=0;resizeLast=1;shadow=0;dashed=0;align=center;arcSize=4;whiteSpace=wrap;html=1;" parent="1" vertex="1">
          <mxGeometry x="120" y="-120" width="160" height="120" as="geometry" />
        </mxCell>
        <mxCell id="ScdA0ONn2j5fR9MgsaRm-26" value="ActorID&lt;div&gt;Name&lt;/div&gt;&lt;div&gt;Age&lt;/div&gt;" style="align=left;strokeColor=none;fillColor=none;spacingLeft=4;fontSize=12;verticalAlign=top;resizable=0;rotatable=0;part=1;html=1;" parent="ScdA0ONn2j5fR9MgsaRm-25" vertex="1">
          <mxGeometry y="50" width="160" height="70" as="geometry" />
        </mxCell>
        <mxCell id="ScdA0ONn2j5fR9MgsaRm-29" value="Episode" style="swimlane;childLayout=stackLayout;horizontal=1;startSize=50;horizontalStack=0;rounded=1;fontSize=14;fontStyle=0;strokeWidth=2;resizeParent=0;resizeLast=1;shadow=0;dashed=0;align=center;arcSize=4;whiteSpace=wrap;html=1;" parent="1" vertex="1">
          <mxGeometry x="480" y="-360" width="160" height="120" as="geometry" />
        </mxCell>
        <mxCell id="ScdA0ONn2j5fR9MgsaRm-30" value="EpisodeID&lt;div&gt;SeriesID&lt;/div&gt;&lt;div&gt;Title&lt;/div&gt;&lt;div&gt;AirDate&lt;/div&gt;" style="align=left;strokeColor=none;fillColor=none;spacingLeft=4;fontSize=12;verticalAlign=top;resizable=0;rotatable=0;part=1;html=1;" parent="ScdA0ONn2j5fR9MgsaRm-29" vertex="1">
          <mxGeometry y="50" width="160" height="70" as="geometry" />
        </mxCell>
        <mxCell id="ScdA0ONn2j5fR9MgsaRm-59" value="" style="fontSize=12;html=1;endArrow=ERzeroToMany;startArrow=ERmandOne;rounded=0;edgeStyle=elbowEdgeStyle;exitX=0;exitY=0.75;exitDx=0;exitDy=0;" parent="ScdA0ONn2j5fR9MgsaRm-29" source="ScdA0ONn2j5fR9MgsaRm-29" edge="1">
          <mxGeometry width="100" height="100" relative="1" as="geometry">
            <mxPoint x="70" y="90" as="sourcePoint" />
            <mxPoint x="-200" y="90" as="targetPoint" />
            <Array as="points">
              <mxPoint x="-50" y="105" />
            </Array>
          </mxGeometry>
        </mxCell>
        <mxCell id="ScdA0ONn2j5fR9MgsaRm-31" value="TV series&amp;nbsp;" style="swimlane;childLayout=stackLayout;horizontal=1;startSize=50;horizontalStack=0;rounded=1;fontSize=14;fontStyle=0;strokeWidth=2;resizeParent=0;resizeLast=1;shadow=0;dashed=0;align=center;arcSize=4;whiteSpace=wrap;html=1;" parent="1" vertex="1">
          <mxGeometry x="120" y="-360" width="160" height="120" as="geometry" />
        </mxCell>
        <mxCell id="ScdA0ONn2j5fR9MgsaRm-32" value="SeriesID (PK)&lt;div&gt;Title&lt;/div&gt;&lt;div&gt;Description&lt;/div&gt;" style="align=left;strokeColor=none;fillColor=none;spacingLeft=4;fontSize=12;verticalAlign=top;resizable=0;rotatable=0;part=1;html=1;" parent="ScdA0ONn2j5fR9MgsaRm-31" vertex="1">
          <mxGeometry y="50" width="160" height="70" as="geometry" />
        </mxCell>
        <mxCell id="ScdA0ONn2j5fR9MgsaRm-33" value="Directors" style="swimlane;childLayout=stackLayout;horizontal=1;startSize=50;horizontalStack=0;rounded=1;fontSize=14;fontStyle=0;strokeWidth=2;resizeParent=0;resizeLast=1;shadow=0;dashed=0;align=center;arcSize=4;whiteSpace=wrap;html=1;" parent="1" vertex="1">
          <mxGeometry x="480" y="-120" width="160" height="120" as="geometry" />
        </mxCell>
        <mxCell id="ScdA0ONn2j5fR9MgsaRm-34" value="DirectorID(PK)&lt;div&gt;Name&lt;/div&gt;&lt;div&gt;Age&lt;/div&gt;" style="align=left;strokeColor=none;fillColor=none;spacingLeft=4;fontSize=12;verticalAlign=top;resizable=0;rotatable=0;part=1;html=1;" parent="ScdA0ONn2j5fR9MgsaRm-33" vertex="1">
          <mxGeometry y="50" width="160" height="70" as="geometry" />
        </mxCell>
        <mxCell id="ScdA0ONn2j5fR9MgsaRm-45" value="" style="edgeStyle=entityRelationEdgeStyle;fontSize=12;html=1;endArrow=ERoneToMany;startArrow=ERoneToMany;rounded=0;entryX=0;entryY=0.75;entryDx=0;entryDy=0;" parent="1" target="ScdA0ONn2j5fR9MgsaRm-30" edge="1">
          <mxGeometry width="100" height="100" relative="1" as="geometry">
            <mxPoint x="280" y="-70" as="sourcePoint" />
            <mxPoint x="380" y="-170" as="targetPoint" />
            <Array as="points">
              <mxPoint x="450" y="-260" />
            </Array>
          </mxGeometry>
        </mxCell>
        <mxCell id="ScdA0ONn2j5fR9MgsaRm-46" value="" style="edgeStyle=entityRelationEdgeStyle;fontSize=12;html=1;endArrow=ERzeroToMany;startArrow=ERmandOne;rounded=0;" parent="1" target="ScdA0ONn2j5fR9MgsaRm-34" edge="1">
          <mxGeometry width="100" height="100" relative="1" as="geometry">
            <mxPoint x="640" y="-280" as="sourcePoint" />
            <mxPoint x="740" y="-380" as="targetPoint" />
          </mxGeometry>
        </mxCell>
        <mxCell id="ScdA0ONn2j5fR9MgsaRm-47" value="" style="edgeStyle=entityRelationEdgeStyle;fontSize=12;html=1;endArrow=ERoneToMany;startArrow=ERoneToMany;rounded=0;entryX=0;entryY=0.414;entryDx=0;entryDy=0;entryPerimeter=0;" parent="1" target="ScdA0ONn2j5fR9MgsaRm-34" edge="1">
          <mxGeometry width="100" height="100" relative="1" as="geometry">
            <mxPoint x="280" y="-40" as="sourcePoint" />
            <mxPoint x="380" y="-140" as="targetPoint" />
          </mxGeometry>
        </mxCell>
        <mxCell id="ScdA0ONn2j5fR9MgsaRm-61" value="Participation" style="swimlane;childLayout=stackLayout;horizontal=1;startSize=50;horizontalStack=0;rounded=1;fontSize=14;fontStyle=0;strokeWidth=2;resizeParent=0;resizeLast=1;shadow=0;dashed=0;align=center;arcSize=4;whiteSpace=wrap;html=1;" parent="1" vertex="1">
          <mxGeometry x="120" y="120" width="160" height="120" as="geometry" />
        </mxCell>
        <mxCell id="ScdA0ONn2j5fR9MgsaRm-62" value="ParticipationID(PK)&lt;div&gt;ActorID(FK)&lt;/div&gt;&lt;div&gt;SeriesID(FK)&lt;/div&gt;&lt;div&gt;Role&lt;/div&gt;" style="align=left;strokeColor=none;fillColor=none;spacingLeft=4;fontSize=12;verticalAlign=top;resizable=0;rotatable=0;part=1;html=1;" parent="ScdA0ONn2j5fR9MgsaRm-61" vertex="1">
          <mxGeometry y="50" width="160" height="70" as="geometry" />
        </mxCell>
        <mxCell id="ScdA0ONn2j5fR9MgsaRm-63" value="Direction" style="swimlane;childLayout=stackLayout;horizontal=1;startSize=50;horizontalStack=0;rounded=1;fontSize=14;fontStyle=0;strokeWidth=2;resizeParent=0;resizeLast=1;shadow=0;dashed=0;align=center;arcSize=8;whiteSpace=wrap;html=1;" parent="1" vertex="1">
          <mxGeometry x="490" y="100" width="160" height="120" as="geometry" />
        </mxCell>
        <mxCell id="ScdA0ONn2j5fR9MgsaRm-64" value="DirectorID(FK)&lt;br&gt;&lt;div&gt;DirectionID(PK)&lt;/div&gt;&lt;div&gt;EpisodeID&lt;/div&gt;" style="align=left;strokeColor=none;fillColor=none;spacingLeft=4;fontSize=12;verticalAlign=top;resizable=0;rotatable=0;part=1;html=1;" parent="ScdA0ONn2j5fR9MgsaRm-63" vertex="1">
          <mxGeometry y="50" width="160" height="70" as="geometry" />
        </mxCell>
        <mxCell id="ScdA0ONn2j5fR9MgsaRm-67" value="" style="edgeStyle=entityRelationEdgeStyle;fontSize=12;html=1;endArrow=ERoneToMany;startArrow=ERoneToMany;rounded=0;entryX=0;entryY=0.5;entryDx=0;entryDy=0;exitX=1;exitY=0.25;exitDx=0;exitDy=0;" parent="1" source="ScdA0ONn2j5fR9MgsaRm-62" target="ScdA0ONn2j5fR9MgsaRm-64" edge="1">
          <mxGeometry width="100" height="100" relative="1" as="geometry">
            <mxPoint x="270" y="160" as="sourcePoint" />
            <mxPoint x="370" y="60" as="targetPoint" />
          </mxGeometry>
        </mxCell>
        <mxCell id="6xqrcs8jXtsf5wkz3uYZ-1" value="" style="edgeStyle=entityRelationEdgeStyle;fontSize=12;html=1;endArrow=ERzeroToMany;startArrow=ERmandOne;rounded=0;entryX=1.006;entryY=0.857;entryDx=0;entryDy=0;entryPerimeter=0;" parent="1" target="ScdA0ONn2j5fR9MgsaRm-34" edge="1">
          <mxGeometry width="100" height="100" relative="1" as="geometry">
            <mxPoint x="650" y="160" as="sourcePoint" />
            <mxPoint x="750" y="60" as="targetPoint" />
          </mxGeometry>
        </mxCell>
        <mxCell id="6xqrcs8jXtsf5wkz3uYZ-15" value="" style="edgeStyle=orthogonalEdgeStyle;fontSize=12;html=1;endArrow=ERoneToMany;startArrow=ERoneToMany;rounded=0;entryX=0;entryY=0.75;entryDx=0;entryDy=0;exitX=0;exitY=0.5;exitDx=0;exitDy=0;" parent="1" source="ScdA0ONn2j5fR9MgsaRm-61" target="ScdA0ONn2j5fR9MgsaRm-25" edge="1">
          <mxGeometry width="100" height="100" relative="1" as="geometry">
            <mxPoint y="80" as="sourcePoint" />
            <mxPoint x="100" y="-20" as="targetPoint" />
            <Array as="points">
              <mxPoint x="80" y="180" />
              <mxPoint x="80" y="-30" />
            </Array>
          </mxGeometry>
        </mxCell>
        <mxCell id="6xqrcs8jXtsf5wkz3uYZ-16" value="" style="edgeStyle=orthogonalEdgeStyle;fontSize=12;html=1;endArrow=ERoneToMany;startArrow=ERoneToMany;rounded=0;entryX=0;entryY=0.75;entryDx=0;entryDy=0;exitX=0;exitY=0.5;exitDx=0;exitDy=0;" parent="1" edge="1">
          <mxGeometry width="100" height="100" relative="1" as="geometry">
            <mxPoint x="120" y="-70" as="sourcePoint" />
            <mxPoint x="120" y="-280" as="targetPoint" />
            <Array as="points">
              <mxPoint x="70" y="-70" />
              <mxPoint x="70" y="-280" />
            </Array>
          </mxGeometry>
        </mxCell>
      </root>
    </mxGraphModel>
  </diagram>
</mxfile>
